<?xml version="1.0" encoding="utf-8"?>
<svg version="1.1" xmlns:xlink="http://www.w3.org/1999/xlink" width="28px" height="29px" xmlns="http://www.w3.org/2000/svg">
  <g transform="matrix(1 0 0 1 -14 -1393 )">
    <path d="M 18.0623091020159 8.39706780696396  L 19.8924862553451 10.292608430055  L 24.9040928527795 5.10201588271228  L 23.0739156994502 3.20647525962126  L 18.0623091020159 8.39706780696396  Z M 27.2302993280391 4.30482590103849  C 27.435552840562 4.5174098961515  27.5381795968235 4.78313989004276  27.5381795968235 5.10201588271228  C 27.5381795968235 5.4208918753818  27.435552840562 5.68662186927306  27.2302993280391 5.89920586438607  L 5.23396456933415 28.6811240073305  C 5.02871105681124 28.8937080024435  4.77214416615761 29  4.46426389737324 29  C 4.15638362858888 29  3.89981673793525 28.8937080024435  3.69456322541234 28.6811240073305  L 0.307880268784362 25.1734880879658  C 0.102626756261454 24.9609040928528  0 24.6951740989615  0 24.376298106292  C 0 24.0574221136225  0.102626756261454 23.7916921197312  0.307880268784362 23.5791081246182  L 22.3042150274893 0.797189981673794  C 22.5094685400122 0.584605986560783  22.7660354306659 0.478313989004275  23.0739156994502 0.478313989004275  C 23.3817959682346 0.478313989004275  23.6383628588882 0.584605986560783  23.8436163714111 0.797189981673794  L 27.2302993280391 4.30482590103849  Z M 3.91692119731216 0  L 4.43005497861943 1.73610262675626  L 6.10629199755651 2.26756261453879  L 4.43005497861943 2.79902260232132  L 3.91692119731216 4.53512522907758  L 3.40378741600489 2.79902260232132  L 1.72755039706781 2.26756261453879  L 3.40378741600489 1.73610262675626  L 3.91692119731216 0  Z M 9.39034819792303 1.1337813072694  L 10.4166157605376 4.60598656078192  L 13.7690897984117 5.66890653634698  L 10.4166157605376 6.73182651191204  L 9.39034819792303 10.2040317654246  L 8.36408063530849 6.73182651191204  L 5.01160659743433 5.66890653634698  L 8.36408063530849 4.60598656078192  L 9.39034819792303 1.1337813072694  Z M 25.8106291997557 11.337813072694  L 26.3237629810629 13.0739156994502  L 28 13.6053756872327  L 26.3237629810629 14.1368356750153  L 25.8106291997557 15.8729383017715  L 25.2974954184484 14.1368356750153  L 23.6212583995113 13.6053756872327  L 25.2974954184484 13.0739156994502  L 25.8106291997557 11.337813072694  Z M 14.8637751985339 0  L 15.3769089798412 1.73610262675626  L 17.0531459987783 2.26756261453879  L 15.3769089798412 2.79902260232132  L 14.8637751985339 4.53512522907758  L 14.3506414172266 2.79902260232132  L 12.6744043982896 2.26756261453879  L 14.3506414172266 1.73610262675626  L 14.8637751985339 0  Z " fill-rule="nonzero" fill="#000000" stroke="none" transform="matrix(1 0 0 1 14 1393 )" />
  </g>
</svg>