<?xml version="1.0" encoding="utf-8"?>
<svg version="1.1" xmlns:xlink="http://www.w3.org/1999/xlink" width="11px" height="17px" xmlns="http://www.w3.org/2000/svg">
  <g transform="matrix(1 0 0 1 -347 -57 )">
    <path d="M 11 2.42555831265504  C 11 2.60835401157978  10.9327541827542 2.76654259718773  10.7982625482626 2.90012406947888  L 5.16023166023167 8.5  L 10.7982625482626 14.0998759305211  C 10.9327541827542 14.2334574028123  11 14.3916459884202  11 14.574441687345  C 11 14.7572373862696  10.9327541827542 14.9154259718776  10.7982625482626 15.0490074441687  L 9.03571428571428 16.7996277915633  C 8.90122265122269 16.9332092638544  8.74195624195623 17  8.55791505791507 17  C 8.37387387387388 17  8.21460746460747 16.9332092638544  8.08011583011587 16.7996277915633  L 0.201737451737419 8.97456575682384  C 0.0672458172457989 8.84098428453269  0 8.68279569892474  0 8.5  C 0 8.31720430107526  0.0672458172457989 8.15901571546731  0.201737451737419 8.02543424317616  L 8.08011583011587 0.200372208436725  C 8.21460746460747 0.0667907361455749  8.37387387387388 0  8.55791505791507 0  C 8.74195624195623 0  8.90122265122269 0.0667907361455749  9.03571428571428 0.200372208436725  L 10.7982625482626 1.9509925558313  C 10.9327541827542 2.08457402812245  11 2.24276261373039  11 2.42555831265504  Z " fill-rule="nonzero" fill="#015478" stroke="none" transform="matrix(1 0 0 1 347 57 )" />
  </g>
</svg>