<?xml version="1.0" encoding="utf-8"?>
<svg version="1.1" xmlns:xlink="http://www.w3.org/1999/xlink" width="10px" height="16px" xmlns="http://www.w3.org/2000/svg">
  <g transform="matrix(1 0 0 1 -348 -183 )">
    <path d="M 10 2.28287841191063  C 10 2.45492142266333  9.93886743886744 2.60380479735316  9.81660231660235 2.72952853598012  L 4.6911196911197 8  L 9.81660231660235 13.2704714640199  C 9.93886743886744 13.3961952026468  10 13.5450785773367  10 13.7171215880894  C 10 13.889164598842  9.93886743886744 14.0380479735318  9.81660231660235 14.1637717121588  L 8.21428571428571 15.8114143920596  C 8.09202059202063 15.9371381306865  7.94723294723294 16  7.77992277992279 16  C 7.61261261261262 16  7.46782496782497 15.9371381306865  7.34555984555988 15.8114143920596  L 0.183397683397654 8.44665012406949  C 0.0611325611325445 8.32092638544253  0 8.1720430107527  0 8  C 0 7.8279569892473  0.0611325611325445 7.67907361455747  0.183397683397654 7.55334987593051  L 7.34555984555988 0.188585607940447  C 7.46782496782497 0.0628618693134823  7.61261261261262 0  7.77992277992279 0  C 7.94723294723294 0  8.09202059202063 0.0628618693134823  8.21428571428571 0.188585607940447  L 9.81660231660235 1.83622828784122  C 9.93886743886744 1.96195202646818  10 2.11083540115801  10 2.28287841191063  Z " fill-rule="nonzero" fill="#015478" stroke="none" transform="matrix(1 0 0 1 348 183 )" />
  </g>
</svg>