<?xml version="1.0" encoding="utf-8"?>
<svg version="1.1" xmlns:xlink="http://www.w3.org/1999/xlink" width="13px" height="22px" xmlns="http://www.w3.org/2000/svg">
  <g transform="matrix(1 0 0 1 -200 -163 )">
    <path d="M 13 3.13895781637711  C 13 3.37551695616207  12.9205276705277 3.58023159636059  12.7615830115831 3.75310173697267  L 6.09845559845561 11  L 12.7615830115831 18.2468982630273  C 12.9205276705277 18.4197684036394  13 18.6244830438379  13 18.8610421836229  C 13 19.0976013234077  12.9205276705277 19.3023159636062  12.7615830115831 19.4751861042183  L 10.6785714285714 21.7406947890819  C 10.5196267696268 21.913564929694  10.3314028314028 22  10.1138996138996 22  C 9.8963963963964 22  9.70817245817246 21.913564929694  9.54922779922784 21.7406947890819  L 0.23841698841695 11.6141439205956  C 0.0794723294723078 11.4412737799835  0 11.236559139785  0 11  C 0 10.763440860215  0.0794723294723078 10.5587262200165  0.23841698841695 10.3858560794044  L 9.54922779922784 0.259305210918114  C 9.70817245817246 0.0864350703060381  9.8963963963964 0  10.1138996138996 0  C 10.3314028314028 0  10.5196267696268 0.0864350703060381  10.6785714285714 0.259305210918114  L 12.7615830115831 2.52481389578168  C 12.9205276705277 2.69768403639375  13 2.90239867659227  13 3.13895781637711  Z " fill-rule="nonzero" fill="#333333" stroke="none" transform="matrix(1 0 0 1 200 163 )" />
  </g>
</svg>