<?xml version="1.0" encoding="utf-8"?>
<svg version="1.1" xmlns:xlink="http://www.w3.org/1999/xlink" width="335px" height="115px" xmlns="http://www.w3.org/2000/svg">
  <g transform="matrix(1 0 0 1 -20 -147 )">
    <path d="M 20.5 245.896551724138  C 20.5 245.896551724138  20.5 152  20.5 152  C 20.5 149.514718625761  22.5147186257614 147.5  25 147.5  C 25 147.5  350 147.5  350 147.5  C 352.485281374239 147.5  354.5 149.514718625761  354.5 152  C 354.5 152  354.5 245.896551724138  354.5 245.896551724138  C 354.5 248.381833098377  352.485281374239 250.396551724138  350 250.396551724138  C 350 250.396551724138  209.87051510492 250.396551724138  209.87051510492 250.396551724138  C 209.87051510492 250.396551724138  189.994189590287 261.431339337434  189.994189590287 261.431339337434  C 189.994189590287 261.431339337434  169.124047799923 250.396551724138  169.124047799923 250.396551724138  C 169.124047799923 250.396551724138  25 250.396551724138  25 250.396551724138  C 22.5147186257614 250.396551724138  20.5 248.381833098377  20.5 245.896551724138  Z " fill-rule="nonzero" fill="#ffffff" stroke="none" />
    <path d="M 20 245.896551724138  C 20 245.896551724138  20 152  20 152  C 20 149.238576250846  22.238576250846 147  25 147  C 25 147  350 147  350 147  C 352.761423749154 147  355 149.238576250846  355 152  C 355 152  355 245.896551724138  355 245.896551724138  C 355 248.657975473292  352.761423749154 250.896551724138  350 250.896551724138  C 350 250.896551724138  210 250.896551724138  210 250.896551724138  C 210 250.896551724138  190 262  190 262  C 190 262  169 250.896551724138  169 250.896551724138  C 169 250.896551724138  25 250.896551724138  25 250.896551724138  C 22.238576250846 250.896551724138  20 248.657975473292  20 245.896551724138  Z M 21 245.896551724138  C 21 248.105690723461  22.7908610006768 249.896551724138  25 249.896551724138  C 25 249.896551724138  169.248095599848 249.896551724138  169.248095599848 249.896551724138  C 169.248095599848 249.896551724138  189.988379180575 260.862678674867  189.988379180575 260.862678674867  C 189.988379180575 260.862678674867  209.741030209839 249.896551724138  209.741030209839 249.896551724138  C 209.741030209839 249.896551724138  350 249.896551724138  350 249.896551724138  C 352.209138999323 249.896551724138  354 248.105690723461  354 245.896551724138  C 354 245.896551724138  354 152  354 152  C 354 149.790861000677  352.209138999323 148  350 148  C 350 148  25 148  25 148  C 22.7908610006768 148  21 149.790861000677  21 152  C 21 152  21 245.896551724138  21 245.896551724138  Z " fill-rule="nonzero" fill="#e4e4e4" stroke="none" />
  </g>
</svg>