<?xml version="1.0" encoding="utf-8"?>
<svg version="1.1" xmlns:xlink="http://www.w3.org/1999/xlink" width="32px" height="33px" xmlns="http://www.w3.org/2000/svg">
  <g transform="matrix(1 0 0 1 -7 -742 )">
    <path d="M 20.6426389737324 9.55528405620037  L 22.7342700061087 11.7122785583384  L 28.4618204031765 5.80574221136225  L 26.3701893708002 3.64874770922419  L 20.6426389737324 9.55528405620037  Z M 31.1203420891875 4.8985949908369  C 31.3549175320709 5.14050091631032  31.4722052535125 5.44288332315211  31.4722052535125 5.80574221136225  C 31.4722052535125 6.16860109957239  31.3549175320709 6.47098350641417  31.1203420891875 6.7128894318876  L 5.98167379352474 32.6371411117899  C 5.74709835064142 32.8790470372633  5.45387904703726 33  5.10201588271228 33  C 4.75015271838729 33  4.45693341478314 32.8790470372633  4.22235797189982 32.6371411117899  L 0.351863164324985 28.6456933414783  C 0.117287721441662 28.4037874160049  0 28.1014050091631  0 27.738546120953  C 0 27.3756872327428  0.117287721441662 27.073304825901  0.351863164324985 26.8313989004276  L 25.4905314599878 0.907147220525351  C 25.7251069028711 0.665241295051925  26.0183262064753 0.54428833231521  26.3701893708002 0.54428833231521  C 26.7220525351252 0.54428833231521  27.0152718387294 0.665241295051925  27.2498472816127 0.907147220525351  L 31.1203420891875 4.8985949908369  Z M 4.47648136835675 0  L 5.06291997556506 1.97556505803299  L 6.97861942577886 2.58032987171655  L 5.06291997556506 3.18509468540012  L 4.47648136835675 5.16065974343311  L 3.89004276114844 3.18509468540012  L 1.97434331093464 2.58032987171655  L 3.89004276114844 1.97556505803299  L 4.47648136835675 0  Z M 10.731826511912 1.29016493585828  L 11.9047037263287 5.24129505192425  L 15.7361026267563 6.45082467929139  L 11.9047037263287 7.66035430665852  L 10.731826511912 11.6114844227245  L 9.55894929749542 7.66035430665852  L 5.72755039706781 6.45082467929139  L 9.55894929749542 5.24129505192425  L 10.731826511912 1.29016493585828  Z M 29.4978619425779 12.9016493585828  L 30.0843005497862 14.8772144166158  L 32 15.4819792302993  L 30.0843005497862 16.0867440439829  L 29.4978619425779 18.0623091020159  L 28.9114233353696 16.0867440439829  L 26.9957238851558 15.4819792302993  L 28.9114233353696 14.8772144166158  L 29.4978619425779 12.9016493585828  Z M 16.9871716554673 0  L 17.5736102626756 1.97556505803299  L 19.4893097128894 2.58032987171655  L 17.5736102626756 3.18509468540012  L 16.9871716554673 5.16065974343311  L 16.400733048259 3.18509468540012  L 14.4850335980452 2.58032987171655  L 16.400733048259 1.97556505803299  L 16.9871716554673 0  Z " fill-rule="nonzero" fill="#000000" stroke="none" transform="matrix(1 0 0 1 7 742 )" />
  </g>
</svg>