<?xml version="1.0" standalone="no"?><!DOCTYPE svg PUBLIC "-//W3C//DTD SVG 1.1//EN" "http://www.w3.org/Graphics/SVG/1.1/DTD/svg11.dtd"><svg t="1690256761484" class="icon" viewBox="0 0 1024 1024" version="1.1" xmlns="http://www.w3.org/2000/svg" p-id="1497" xmlns:xlink="http://www.w3.org/1999/xlink" width="200" height="200"><path d="M482.762 658.829l175.534-112.306c12.639-8.073 19.849-20.682 19.849-34.523 0-13.844-7.284-26.369-19.849-34.442l-175.534-112.39c-6.838-4.287-13.753-6.509-20.591-6.509-19.259 0-33.307 17.305-33.307 41.035v224.612c0 23.814 13.975 41.035 33.307 41.035 6.837 0 13.753-2.141 20.591-6.512z" fill="#333333" p-id="1498"></path><path d="M512.004 127c-211.755 0-385.003 173.248-385.003 385a372.515 372.515 0 0 0 53.6 193.353c2.484 4.156 61.643-53.17 177.401-171.966L207.85 488.898C219.4 327.201 350.3 204.001 515.851 204.001c169.401 0 308.002 138.598 308.002 307.999S685.252 820.002 515.851 820.002c-57.749 0-111.648-15.402-157.85-42.354l-57.753 53.899C361.848 870.051 434.999 897 512.004 897c211.749 0 384.997-173.251 384.997-385 0-211.752-169.398-385-384.997-385z" fill="#333333" p-id="1499"></path></svg>