<?xml version="1.0" encoding="utf-8"?>
<svg version="1.1" xmlns:xlink="http://www.w3.org/1999/xlink" width="22px" height="22px" xmlns="http://www.w3.org/2000/svg">
  <g transform="matrix(1 0 0 1 -348 -52 )">
    <path d="M 17.1752232142857 12.9622395833333  C 17.2488839285714 13.0481770833333  17.2857142857143 13.1579861111111  17.2857142857143 13.2916666666667  L 17.2857142857143 17.875  C 17.2857142857143 19.0112847222222  16.9399181547619 19.9828559027778  16.2483258928571 20.7897135416667  C 15.5567336309524 21.5965711805556  14.7239583333333 22  13.75 22  L 3.53571428571429 22  C 2.56175595238095 22  1.7289806547619 21.5965711805556  1.03738839285714 20.7897135416667  C 0.345796130952381 19.9828559027778  0 19.0112847222222  0 17.875  L 0 5.95833333333333  C 0 4.82204861111111  0.345796130952381 3.85047743055555  1.03738839285714 3.04361979166667  C 1.7289806547619 2.23676215277778  2.56175595238095 1.83333333333333  3.53571428571429 1.83333333333333  L 12.1785714285714 1.83333333333333  C 12.2931547619048 1.83333333333333  12.3872767857143 1.87630208333333  12.4609375 1.96223958333333  C 12.5345982142857 2.04817708333333  12.5714285714286 2.15798611111111  12.5714285714286 2.29166666666667  L 12.5714285714286 3.20833333333333  C 12.5714285714286 3.34201388888889  12.5345982142857 3.45182291666667  12.4609375 3.53776041666667  C 12.3872767857143 3.62369791666667  12.2931547619048 3.66666666666667  12.1785714285714 3.66666666666667  L 3.53571428571429 3.66666666666667  C 2.99553571428571 3.66666666666667  2.53311011904762 3.89105902777778  2.1484375 4.33984375  C 1.76376488095238 4.78862847222222  1.57142857142857 5.328125  2 5.95833333333333  L 2 17.875  C 1.57142857142857 18.5052083333333  1.76376488095238 19.0447048611111  2.1484375 19.4934895833333  C 2.53311011904762 19.9422743055556  2.99553571428571 20.1666666666667  3.53571428571429 20  L 13.75 20  C 14.2901785714286 20.1666666666667  14.7526041666667 19.9422743055556  15.1372767857143 19.4934895833333  C 15.5219494047619 19.0447048611111  15.7142857142857 18.5052083333333  15.7142857142857 17.875  L 15.7142857142857 13.2916666666667  C 15.7142857142857 13.1579861111111  15.7511160714286 13.0481770833333  15.8247767857143 12.9622395833333  C 15.8984375 12.8763020833333  15.9925595238095 12.8333333333333  16.1071428571429 12.8333333333333  L 16.8928571428571 12.8333333333333  C 17.0074404761905 12.8333333333333  17.1015625 12.8763020833333  17.1752232142857 12.9622395833333  Z M 21.7667410714286 0.272135416666666  C 21.9222470238095 0.453559027777775  22 0.668402777777775  22 0.916666666666666  L 22 8.25  C 22 8.49826388888889  21.9222470238095 8.71310763888889  21.7667410714286 8.89453125  C 21.6112351190476 9.07595486111111  21.4270833333333 9.16666666666667  21.2142857142857 9.16666666666667  C 21.0014880952381 9.16666666666667  20.8173363095238 9.07595486111111  20.6618303571429 8.89453125  L 18.5011160714286 6.37369791666667  L 10.4966517857143 15.7122395833333  C 10.414806547619 15.8077256944444  10.3206845238095 15.85546875  10.2142857142857 15.85546875  C 10.1078869047619 15.85546875  10.0137648809524 15.8077256944444  9.93191964285714 15.7122395833333  L 8.53236607142857 14.0794270833333  C 8.45052083333333 13.9839409722222  8.40959821428572 13.8741319444444  8.40959821428572 13.75  C 8.40959821428572 13.6258680555556  8.45052083333333 13.5160590277778  8.53236607142857 13.4205729166667  L 16.5368303571429 4.08203125  L 14.3761160714286 1.56119791666667  C 14.2206101190476 1.37977430555555  14.1428571428571 1.16493055555555  14.1428571428571 0.916666666666666  C 14.1428571428571 0.668402777777775  14.2206101190476 0.453559027777775  14.3761160714286 0.272135416666666  C 14.5316220238095 0.0907118055555569  14.7157738095238 0  14.9285714285714 0  L 21.2142857142857 0  C 21.4270833333333 0  21.6112351190476 0.0907118055555569  21.7667410714286 0.272135416666666  Z " fill-rule="nonzero" fill="#000000" stroke="none" transform="matrix(1 0 0 1 348 52 )" />
  </g>
</svg>