<?xml version="1.0" encoding="utf-8"?>
<svg version="1.1" xmlns:xlink="http://www.w3.org/1999/xlink" width="26px" height="28px" xmlns="http://www.w3.org/2000/svg">
  <g transform="matrix(1 0 0 1 450 -411 )">
    <path d="M 13 26.75  C 13.1666666666667 26.75  13.25 26.6666666666667  13.25 26.5  C 13.25 26.3333333333333  13.1666666666667 26.25  13 26.25  C 12.3854166666667 26.25  11.8567708333333 26.0286458333333  11.4140625 25.5859375  C 10.9713541666667 25.1432291666667  10.75 24.6145833333333  10.75 24  C 10.75 23.8333333333333  10.6666666666667 23.75  10.5 23.75  C 10.3333333333333 23.75  10.25 23.8333333333333  10.25 24  C 10.25 24.7604166666667  10.5182291666667 25.4088541666667  11.0546875 25.9453125  C 11.5911458333333 26.4817708333333  12.2395833333333 26.75  13 26.75  Z M 7 9  C 7 14.5416666666667  5.61458333333333 18.875  2.84375 22  L 23.15625 22  C 20.3854166666667 18.875  19 14.5416666666667  19 9  C 19 8.46875  18.875 7.921875  18.625 7.359375  C 18.375 6.796875  18.015625 6.26041666666666  17.546875 5.75  C 17.078125 5.23958333333333  16.4453125 4.8203125  15.6484375 4.4921875  C 14.8515625 4.1640625  13.96875 4  13 4  C 12.03125 4  11.1484375 4.1640625  10.3515625 4.4921875  C 9.5546875 4.8203125  8.921875 5.23958333333333  8.453125 5.75  C 7.984375 6.26041666666666  7.625 6.796875  7.375 7.359375  C 7.125 7.921875  7 8.46875  7 9  Z M 24.578125 20.625  C 25.0052083333333 21.1041666666667  25.4791666666667 21.5625  26 22  C 26 22.5416666666667  25.8020833333333 23.0104166666667  25.40625 23.40625  C 25.0104166666667 23.8020833333333  24.5416666666667 24  24 24  L 17 24  C 17 25.1041666666667  16.609375 26.046875  15.828125 26.828125  C 15.046875 27.609375  14.1041666666667 28  13 28  C 11.8958333333333 28  10.953125 27.609375  10.171875 26.828125  C 9.390625 26.046875  9 25.1041666666667  9 24  L 2 24  C 1.45833333333333 24  0.989583333333333 23.8020833333333  0.59375 23.40625  C 0.197916666666667 23.0104166666667  0 22.5416666666667  0 22  C 0.520833333333333 21.5625  0.994791666666667 21.1041666666667  1.421875 20.625  C 1.84895833333333 20.1458333333333  2.29166666666667 19.5234375  2.75 18.7578125  C 3.20833333333333 17.9921875  3.59635416666667 17.1666666666667  3.9140625 16.28125  C 4.23177083333333 15.3958333333333  4.4921875 14.3229166666667  4.6953125 13.0625  C 4.8984375 11.8020833333333  5 10.4479166666667  5 9  C 5 7.41666666666667  5.609375 5.9453125  6.828125 4.5859375  C 8.046875 3.2265625  9.64583333333333 2.40104166666666  11.625 2.109375  C 11.5416666666667 1.91145833333333  11.5 1.70833333333333  11.5 1.5  C 11.5 1.08333333333333  11.6458333333333 0.729166666666666  11.9375 0.4375  C 12.2291666666667 0.145833333333334  12.5833333333333 0  13 0  C 13.4166666666667 0  13.7708333333333 0.145833333333334  14.0625 0.4375  C 14.3541666666667 0.729166666666666  14.5 1.08333333333333  14.5 1.5  C 14.5 1.70833333333333  14.4583333333333 1.91145833333333  14.375 2.109375  C 16.3541666666667 2.40104166666666  17.953125 3.2265625  19.171875 4.5859375  C 20.390625 5.9453125  21 7.41666666666667  21 9  C 21 10.4479166666667  21.1015625 11.8020833333333  21.3046875 13.0625  C 21.5078125 14.3229166666667  21.7682291666667 15.3958333333333  22.0859375 16.28125  C 22.4036458333333 17.1666666666667  22.7916666666667 17.9921875  23.25 18.7578125  C 23.7083333333333 19.5234375  24.1510416666667 20.1458333333333  24.578125 20.625  Z " fill-rule="nonzero" fill="#000000" stroke="none" transform="matrix(1 0 0 1 -450 411 )" />
  </g>
</svg>