<?xml version="1.0" encoding="utf-8"?>
<svg version="1.1" xmlns:xlink="http://www.w3.org/1999/xlink" width="32px" height="28px" xmlns="http://www.w3.org/2000/svg">
  <g transform="matrix(1 0 0 1 348 -411 )">
    <path d="M 22.8125 3.60026041666667  C 20.6994047619048 2.75564236111111  18.4285714285714 2.33333333333333  16 2.33333333333333  C 13.5714285714286 2.33333333333333  11.3005952380952 2.75564236111111  9.1875 3.60026041666667  C 7.07440476190476 4.44487847222222  5.39583333333333 5.58420138888889  4.15178571428571 7.01822916666667  C 2.9077380952381 8.45225694444444  2.28571428571429 10.0017361111111  2.28571428571429 11.6666666666667  C 2.28571428571429 13.0277777777778  2.71130952380952 14.3250868055556  3.5625 15.55859375  C 4.41369047619048 16.7921006944444  5.61309523809524 17.8585069444444  7.16071428571429 18.7578125  L 8.71428571428571 19.6692708333333  L 8.23214285714286 21.4192708333333  C 7.94642857142857 22.5251736111111  7.52976190476191 23.5703125  6.98214285714286 24.5546875  C 8.79166666666667 23.7890625  10.4285714285714 22.75  11.8928571428571 21.4375  L 12.6607142857143 20.7447916666667  L 13.6785714285714 20.8541666666667  C 14.5 20.9513888888889  15.2738095238095 21  16 21  C 18.4285714285714 21  20.6994047619048 20.5776909722222  22.8125 19.7330729166667  C 24.9255952380952 18.8884548611111  26.6041666666667 17.7491319444444  27.8482142857143 16.3151041666667  C 29.0922619047619 14.8810763888889  29.7142857142857 13.3315972222222  29.7142857142857 11.6666666666667  C 29.7142857142857 10.0017361111111  29.0922619047619 8.45225694444444  27.8482142857143 7.01822916666667  C 26.6041666666667 5.58420138888889  24.9255952380952 4.44487847222222  22.8125 3.60026041666667  Z M 29.8571428571429 5.80598958333333  C 31.2857142857143 7.59852430555555  32 9.55208333333333  32 11.6666666666667  C 32 13.78125  31.2857142857143 15.7348090277778  29.8571428571429 17.52734375  C 28.4285714285714 19.3198784722222  26.4880952380952 20.7356770833333  24.0357142857143 21.7747395833333  C 21.5833333333333 22.8138020833333  18.9047619047619 23.3333333333333  16 23.3333333333333  C 15.1666666666667 23.3333333333333  14.3035714285714 23.2847222222222  13.4107142857143 23.1875  C 11.0535714285714 25.3142361111111  8.31547619047619 26.7847222222222  5.19642857142857 27.5989583333333  C 4.61309523809524 27.7690972222222  3.93452380952381 27.9027777777778  3.16071428571429 28  L 3.07142857142857 28  C 2.89285714285714 28  2.73214285714286 27.9361979166667  2.58928571428571 27.80859375  C 2.44642857142857 27.6809895833333  2.35119047619048 27.5138888888889  2.30357142857143 27.3072916666667  L 2.30357142857143 27.2890625  C 2.26785714285714 27.2404513888889  2.26488095238095 27.1675347222222  2.29464285714286 27.0703125  C 2.32440476190476 26.9730902777778  2.33630952380952 26.9123263888889  2.33035714285714 26.8880208333333  C 2.32440476190476 26.8637152777778  2.35119047619048 26.8059895833333  2.41071428571429 26.71484375  L 2.51785714285714 26.55078125  C 2.51785714285714 26.55078125  2.55952380952381 26.4991319444444  2.64285714285714 26.3958333333333  C 2.72619047619048 26.2925347222222  2.77380952380952 26.2378472222222  2.78571428571429 26.2317708333333  C 2.86904761904762 26.1345486111111  3.05357142857143 25.9249131944444  3.33928571428571 25.6028645833333  C 3.625 25.2808159722222  3.83035714285714 25.0499131944444  3.95535714285714 24.91015625  C 4.08035714285714 24.7703993055556  4.26488095238095 24.5303819444444  4.50892857142857 24.1901041666667  C 4.75297619047619 23.8498263888889  4.94642857142857 23.5399305555556  5.08928571428571 23.2604166666667  C 5.23214285714286 22.9809027777778  5.39285714285714 22.6223958333333  5.57142857142857 22.1848958333333  C 5.75 21.7473958333333  5.90476190476191 21.2855902777778  6.03571428571429 20.7994791666667  C 4.16666666666667 19.7178819444444  2.69345238095238 18.3810763888889  1.61607142857143 16.7890625  C 0.538690476190476 15.1970486111111  0 13.4895833333333  0 11.6666666666667  C 0 9.55208333333333  0.714285714285714 7.59852430555555  2.14285714285714 5.80598958333333  C 3.57142857142857 4.01345486111111  5.51190476190476 2.59765625  7.96428571428571 1.55859375  C 10.4166666666667 0.51953125  13.0952380952381 0  16 0  C 18.9047619047619 0  21.5833333333333 0.51953125  24.0357142857143 1.55859375  C 26.4880952380952 2.59765625  28.4285714285714 4.01345486111111  29.8571428571429 5.80598958333333  Z " fill-rule="nonzero" fill="#000000" stroke="none" transform="matrix(1 0 0 1 -348 411 )" />
  </g>
</svg>