<?xml version="1.0" encoding="utf-8"?>
<svg version="1.1" xmlns:xlink="http://www.w3.org/1999/xlink" width="34px" height="31px" xmlns="http://www.w3.org/2000/svg">
  <g transform="matrix(1 0 0 1 244 -411 )">
    <path d="M 28.0044642857143 16.6302083333333  C 30.3824404761905 14.1006944444444  31.5714285714286 11.7057291666667  31.5714285714286 9.4453125  C 31.5714285714286 8.35546875  31.4354538690476 7.39344618055555  31.1635044642857 6.55924479166667  C 30.8915550595238 5.72504340277777  30.5437127976191 5.06239149305555  30.1199776785714 4.5712890625  C 29.6962425595238 4.08018663194444  29.1808035714286 3.67990451388889  28.5736607142857 3.37044270833333  C 27.9665178571429 3.06098090277777  27.3720238095238 2.85243055555555  26.7901785714286 2.74479166666667  C 26.2083333333333 2.63715277777777  25.5885416666667 2.58333333333333  24.9308035714286 2.58333333333333  C 24.2730654761905 2.58333333333333  23.5647321428571 2.7548828125  22.8058035714286 3.09798177083333  C 22.046875 3.44108072916667  21.3480282738095 3.87163628472222  20.7092633928571 4.3896484375  C 20.0704985119048 4.90766059027777  19.5234375 5.39203559027777  19.0680803571429 5.8427734375  C 18.6127232142857 6.29351128472222  18.2332589285714 6.70724826388889  17.9296875 7.083984375  C 17.7020089285714 7.37999131944444  17.3921130952381 7.52799479166667  17 7.52799479166667  C 16.6078869047619 7.52799479166667  16.2979910714286 7.37999131944444  16.0703125 7.083984375  C 15.7667410714286 6.70724826388889  15.3872767857143 6.29351128472222  14.9319196428571 5.8427734375  C 14.4765625 5.39203559027777  13.9295014880952 4.90766059027777  13.2907366071429 4.3896484375  C 12.6519717261905 3.87163628472222  11.953125 3.44108072916667  11.1941964285714 3.09798177083333  C 10.4352678571429 2.7548828125  9.72693452380953 2.58333333333333  9.06919642857143 2.58333333333333  C 8.41145833333333 2.58333333333333  7.79166666666667 2.63715277777777  7.20982142857143 2.74479166666667  C 6.62797619047619 2.85243055555555  6.03348214285714 3.06098090277777  5.42633928571429 3.37044270833333  C 4.81919642857143 3.67990451388889  4.30375744047619 4.08018663194444  3.88002232142857 4.5712890625  C 3.45628720238095 5.06239149305555  3.10844494047619 5.72504340277777  2.83649553571429 6.55924479166667  C 2.56454613095238 7.39344618055555  2.42857142857143 8.35546875  2.42857142857143 9.4453125  C 2.42857142857143 11.7057291666667  3.61123511904762 14.0939670138889  5.9765625 16.6100260416667  L 17 27.912109375  L 28.0044642857143 16.6302083333333  Z M 31.5904017857143 2.50260416666667  C 33.1968005952381 4.17100694444444  34 6.48524305555555  34 9.4453125  C 34 12.4188368055556  32.5517113095238 15.4461805555556  29.6551339285714 18.52734375  L 17.8348214285714 30.63671875  C 17.6071428571429 30.87890625  17.328869047619 31  17 31  C 16.671130952381 31  16.3928571428571 30.87890625  16.1651785714286 30.63671875  L 4.32589285714286 18.4869791666667  C 4.19940476190476 18.3793402777778  4.02548363095238 18.2044270833333  3.80412946428571 17.9622395833333  C 3.58277529761905 17.7200520833333  3.23177083333333 17.2794053819444  2.75111607142857 16.6402994791667  C 2.27046130952381 16.0011935763889  1.84040178571429 15.3452690972222  1.4609375 14.6725260416667  C 1.08147321428571 13.9997829861111  0.74311755952381 13.1857638888889  0.445870535714286 12.23046875  C 0.148623511904762 11.2751736111111  0 10.3467881944444  0 9.4453125  C 0 6.48524305555555  0.803199404761905 4.17100694444444  2.40959821428571 2.50260416666667  C 4.01599702380952 0.834201388888889  6.23586309523809 0  9.06919642857143 0  C 9.85342261904762 0  10.6534598214286 0.144639756944443  11.4693080357143 0.433919270833334  C 12.28515625 0.72319878472222  13.0440848214286 1.11338975694444  13.74609375 1.6044921875  C 14.4481026785714 2.09559461805555  15.0520833333333 2.55642361111111  15.5580357142857 2.98697916666667  C 16.0639880952381 3.41753472222222  16.5446428571429 3.875  17 4.359375  C 17.4553571428571 3.875  17.9360119047619 3.41753472222222  18.4419642857143 2.98697916666667  C 18.9479166666667 2.55642361111111  19.5518973214286 2.09559461805555  20.25390625 1.6044921875  C 20.9559151785714 1.11338975694444  21.71484375 0.72319878472222  22.5306919642857 0.433919270833334  C 23.3465401785714 0.144639756944443  24.1465773809524 0  24.9308035714286 0  C 27.7641369047619 0  29.9840029761905 0.834201388888889  31.5904017857143 2.50260416666667  Z " fill-rule="nonzero" fill="#000000" stroke="none" transform="matrix(1 0 0 1 -244 411 )" />
  </g>
</svg>