<?xml version="1.0" encoding="utf-8"?>
<svg version="1.1" xmlns:xlink="http://www.w3.org/1999/xlink" width="26px" height="20px" xmlns="http://www.w3.org/2000/svg">
  <g transform="matrix(1 0 0 1 -13 -15 )">
    <path d="M 4.75892857142851 15.3409090909091  C 5.30059523809529 15.8712121212121  5.57142857142851 16.5151515151515  5.57142857142851 17.2727272727272  C 5.57142857142851 18.0303030303029  5.30059523809529 18.6742424242424  4.75892857142851 19.2045454545454  C 4.21726190476194 19.7348484848485  3.55952380952381 20  2.78571428571426 20  C 2.01190476190471 20  1.35416666666658 19.7348484848485  0.8125 19.2045454545454  C 0.270833333333423 18.6742424242424  0 18.0303030303029  0 17.2727272727272  C 0 16.5151515151515  0.270833333333423 15.8712121212121  0.8125 15.3409090909091  C 1.35416666666658 14.8106060606062  2.01190476190471 14.5454545454546  2.78571428571426 14.5454545454546  C 3.55952380952381 14.5454545454546  4.21726190476194 14.8106060606062  4.75892857142851 15.3409090909091  Z M 4.75892857142851 8.0681818181819  C 5.30059523809529 8.59848484848485  5.57142857142851 9.24242424242426  5.57142857142851 10  C 5.57142857142851 10.7575757575757  5.30059523809529 11.4015151515151  4.75892857142851 11.9318181818181  C 4.21726190476194 12.4621212121213  3.55952380952381 12.7272727272728  2.78571428571426 12.7272727272728  C 2.01190476190471 12.7272727272728  1.35416666666658 12.4621212121213  0.8125 11.9318181818181  C 0.270833333333423 11.4015151515151  0 10.7575757575757  0 10  C 0 9.24242424242426  0.270833333333423 8.59848484848485  0.8125 8.0681818181819  C 1.35416666666658 7.53787878787869  2.01190476190471 7.27272727272721  2.78571428571426 7.27272727272721  C 3.55952380952381 7.27272727272721  4.21726190476194 7.53787878787869  4.75892857142851 8.0681818181819  Z M 25.8621651785715 15.5894886363637  C 25.9540550595238 15.6794507575757  26 15.7859848484849  26 15.9090909090909  L 26 18.6363636363637  C 26 18.7594696969696  25.9540550595238 18.8660037878787  25.8621651785715 18.9559659090909  C 25.7702752976191 19.0459280303029  25.6614583333334 19.0909090909091  25.5357142857143 19  L 7.89285714285723 19  C 7.76711309523806 19.0909090909091  7.65829613095232 19.0459280303029  7.56640625 18.9559659090909  C 7.47451636904768 18.8660037878787  7.42857142857149 18.7594696969696  7.42857142857149 18.6363636363637  L 7.42857142857149 15.9090909090909  C 7.42857142857149 15.7859848484849  7.47451636904768 15.6794507575757  7.56640625 15.5894886363637  C 7.65829613095232 15.4995265151515  7.76711309523806 15.4545454545454  7.89285714285723 15.4545454545454  L 25.5357142857143 15.4545454545454  C 25.6614583333334 15.4545454545454  25.7702752976191 15.4995265151515  25.8621651785715 15.5894886363637  Z M 4.75892857142851 0.795454545454558  C 5.30059523809529 1.32575757575764  5.57142857142851 1.96969696969705  5.57142857142851 2.72727272727279  C 5.57142857142851 3.48484848484853  5.30059523809529 4.12878787878794  4.75892857142851 4.65909090909089  C 4.21726190476194 5.18939393939383  3.55952380952381 5.45454545454544  2.78571428571426 5.45454545454544  C 2.01190476190471 5.45454545454544  1.35416666666658 5.18939393939383  0.8125 4.65909090909089  C 0.270833333333423 4.12878787878794  0 3.48484848484853  0 2.72727272727279  C 0 1.96969696969705  0.270833333333423 1.32575757575764  0.8125 0.795454545454558  C 1.35416666666658 0.265151515151475  2.01190476190471 0  2.78571428571426 0  C 3.55952380952381 0  4.21726190476194 0.265151515151475  4.75892857142851 0.795454545454558  Z M 25.8621651785715 8.31676136363633  C 25.9540550595238 8.40672348484853  26 8.51325757575764  26 8.63636363636367  L 26 11.3636363636363  C 26 11.4867424242424  25.9540550595238 11.5932765151515  25.8621651785715 11.6832386363637  C 25.7702752976191 11.7732007575757  25.6614583333334 11.8181818181819  25.5357142857143 11.8181818181819  L 7.89285714285723 11.8181818181819  C 7.76711309523806 11.8181818181819  7.65829613095232 11.7732007575757  7.56640625 11.6832386363637  C 7.47451636904768 11.5932765151515  7.42857142857149 11.4867424242424  7.42857142857149 11.3636363636363  L 7.42857142857149 8.63636363636367  C 7.42857142857149 8.51325757575764  7.47451636904768 8.40672348484853  7.56640625 8.31676136363633  C 7.65829613095232 8.22679924242426  7.76711309523806 8.1818181818181  7.89285714285723 8.1818181818181  L 25.5357142857143 8.1818181818181  C 25.6614583333334 8.1818181818181  25.7702752976191 8.22679924242426  25.8621651785715 8.31676136363633  Z M 25.8621651785715 1.04403409090912  C 25.9540550595238 1.13399621212131  26 1.24053030303043  26 1.36363636363633  L 26 4.09090909090911  C 26 4.21401515151515  25.9540550595238 4.32054924242426  25.8621651785715 4.41051136363633  C 25.7702752976191 4.50047348484853  25.6614583333334 4.54545454545456  25.5357142857143 4.54545454545456  L 7.89285714285723 4.54545454545456  C 7.76711309523806 4.54545454545456  7.65829613095232 4.50047348484853  7.56640625 4.41051136363633  C 7.47451636904768 4.32054924242426  7.42857142857149 4.21401515151515  7.42857142857149 4.09090909090911  L 7.42857142857149 1.36363636363633  C 7.42857142857149 1.24053030303043  7.47451636904768 1.13399621212131  7.56640625 1.04403409090912  C 7.65829613095232 0.954071969697051  7.76711309523806 0.909090909090885  7.89285714285723 1  L 25.5357142857143 1  C 25.6614583333334 0.909090909090885  25.7702752976191 0.954071969697051  25.8621651785715 1.04403409090912  Z " fill-rule="nonzero" fill="#41bc00" stroke="none" transform="matrix(1 0 0 1 13 15 )" />
  </g>
</svg>