<?xml version="1.0" encoding="utf-8"?>
<svg version="1.1" xmlns:xlink="http://www.w3.org/1999/xlink" width="16px" height="21px" xmlns="http://www.w3.org/2000/svg">
  <g transform="matrix(1 0 0 1 -10 -52 )">
    <path d="M 16 2.9962779156327  C 16 3.22208436724562  15.9021879021879 3.41749379652602  15.7065637065638 3.58250620347391  L 7.50579150579152 10.5  L 15.7065637065638 17.4174937965261  C 15.9021879021879 17.582506203474  16 17.7779156327544  16 18.0037220843673  C 16 18.2295285359801  15.9021879021879 18.4249379652605  15.7065637065638 18.5899503722084  L 13.1428571428571 20.7524813895782  C 12.947232947233 20.9174937965261  12.7155727155727 21  12.4478764478765 21  C 12.1801801801802 21  11.9485199485199 20.9174937965261  11.7528957528958 20.7524813895782  L 0.293436293436246 11.0862282878412  C 0.0978120978120712 10.9212158808933  0 10.7258064516129  0 10.5  C 0 10.2741935483871  0.0978120978120712 10.0787841191067  0.293436293436246 9.91377171215879  L 11.7528957528958 0.247518610421836  C 11.9485199485199 0.0825062034739455  12.1801801801802 0  12.4478764478765 0  C 12.7155727155727 0  12.947232947233 0.0825062034739455  13.1428571428571 0.247518610421836  L 15.7065637065638 2.4100496277916  C 15.9021879021879 2.57506203473949  16 2.77047146401989  16 2.9962779156327  Z " fill-rule="nonzero" fill="#ffffff" stroke="none" transform="matrix(1 0 0 1 10 52 )" />
  </g>
</svg>