<?xml version="1.0" encoding="utf-8"?>
<svg version="1.1" xmlns:xlink="http://www.w3.org/1999/xlink" width="17px" height="28px" xmlns="http://www.w3.org/2000/svg">
  <g transform="matrix(1 0 0 1 -199 -174 )">
    <path d="M 17 3.9950372208436  C 17 4.29611248966082  16.8960746460746 4.55665839536802  16.688223938224 4.77667493796521  L 7.97490347490349 14  L 16.688223938224 23.2233250620348  C 16.8960746460746 23.443341604632  17 23.7038875103392  17 24.0049627791564  C 17 24.3060380479735  16.8960746460746 24.5665839536807  16.688223938224 24.7866004962779  L 13.9642857142857 27.6699751861042  C 13.7564350064351 27.8899917287014  13.510296010296 28  13.2258687258687 28  C 12.9414414414415 28  12.6953024453024 27.8899917287014  12.4874517374518 27.6699751861042  L 0.311776061776011 14.7816377171216  C 0.103925353925326 14.5616211745244  0 14.3010752688172  0 14  C 0 13.6989247311828  0.103925353925326 13.4383788254756  0.311776061776011 13.2183622828784  L 12.4874517374518 0.330024813895782  C 12.6953024453024 0.110008271298594  12.9414414414415 0  13.2258687258687 0  C 13.510296010296 0  13.7564350064351 0.110008271298594  13.9642857142857 0.330024813895782  L 16.688223938224 3.21339950372213  C 16.8960746460746 3.43341604631932  17 3.69396195202653  17 3.9950372208436  Z " fill-rule="nonzero" fill="#0c5757" stroke="none" transform="matrix(1 0 0 1 199 174 )" />
  </g>
</svg>