<?xml version="1.0" encoding="utf-8"?>
<svg version="1.1" xmlns:xlink="http://www.w3.org/1999/xlink" width="9px" height="15px" xmlns="http://www.w3.org/2000/svg">
  <g transform="matrix(1 0 0 1 -363 -478 )">
    <path d="M 9 2.14019851116621  C 9 2.30148883374687  8.94498069498069 2.44106699751858  8.83494208494211 2.55893300248136  L 4.22200772200773 7.5  L 8.83494208494211 12.4410669975186  C 8.94498069498069 12.5589330024814  9 12.6985111662531  9 12.8598014888338  C 9 13.0210918114144  8.94498069498069 13.1606699751861  8.83494208494211 13.2785359801489  L 7.39285714285714 14.8232009925558  C 7.28281853281856 14.9410669975186  7.15250965250964 15  7.00193050193051 15  C 6.85135135135136 15  6.72104247104247 14.9410669975186  6.61100386100389 14.8232009925558  L 0.165057915057888 7.91873449131515  C 0.05501930501929 7.80086848635237  0 7.66129032258065  0 7.5  C 0 7.33870967741935  0.05501930501929 7.19913151364763  0.165057915057888 7.08126550868485  L 6.61100386100389 0.176799007444169  C 6.72104247104247 0.0589330024813896  6.85135135135136 0  7.00193050193051 0  C 7.15250965250964 0  7.28281853281856 0.0589330024813896  7.39285714285714 0.176799007444169  L 8.83494208494211 1.72146401985114  C 8.94498069498069 1.83933002481392  9 1.97890818858564  9 2.14019851116621  Z " fill-rule="nonzero" fill="#ffffff" stroke="none" transform="matrix(1 0 0 1 363 478 )" />
  </g>
</svg>