<?xml version="1.0" encoding="utf-8"?>
<svg version="1.1" xmlns:xlink="http://www.w3.org/1999/xlink" width="17px" height="19px" xmlns="http://www.w3.org/2000/svg">
  <g transform="matrix(1 0 0 1 -8 -381 )">
    <path d="M 7.66225961538462 2.38118489583333  C 7.86658653846154 3.02029079861111  7.96875 3.64496527777778  7.96875 4.25520833333333  C 7.96875 4.75  7.90404647435898 5.21799045138889  7.77463942307692 5.6591796875  C 7.64523237179487 6.10036892361111  7.4306891025641 6.48177083333333  7.13100961538462 6.80338541666667  C 6.83133012820513 7.125  6.47375801282051 7.28580729166667  6.05829326923077 7.28580729166667  C 5.54066506410256 7.28580729166667  5.07071314102564 7.04871961805555  4.6484375 6.57454427083333  C 4.22616185897436 6.10036892361111  3.91286057692308 5.54166666666667  3.70853365384615 4.8984375  C 3.50420673076923 4.25520833333333  3.40204326923077 3.63259548611111  3.40204326923077 3.03059895833333  C 3.40204326923077 2.53580729166667  3.4667467948718 2.06781684027778  3.59615384615385 1.62662760416667  C 3.7255608974359 1.18543836805555  3.94010416666667 0.804036458333334  4.23978365384615 0.482421875  C 4.53946314102564 0.160807291666666  4.89703525641026 0  5.3125 0  C 5.8369391025641 0  6.30859375 0.23708767361111  6.72746394230769 0.711263020833334  C 7.14633413461538 1.18543836805555  7.45793269230769 1.74207899305555  7.66225961538462 2.38118489583333  Z M 4.1171875 8.34342447916667  C 4.35556891025641 8.99077690972222  4.47475961538462 9.61957465277778  4.47475961538462 10.2298177083333  C 4.47475961538462 10.8895399305556  4.33173076923077 11.4626736111111  4.04567307692308 11.94921875  C 3.75961538461538 12.4357638888889  3.35436698717949 12.6790364583333  2.82992788461538 12.6790364583333  C 2.31229967948718 12.6790364583333  1.83042868589744 12.4501953125  1.38431490384615 11.9925130208333  C 0.938201121794872 11.5348307291667  0.595953525641026 10.984375  0.357572115384615 10.3411458333333  C 0.119190705128205 9.69791666666667  0 9.07118055555555  0 8.4609375  C 0 7.80121527777778  0.143028846153846 7.22601996527778  0.429086538461538 6.7353515625  C 0.715144230769231 6.24468315972222  1.12039262820513 5.99934895833333  1.64483173076923 5.99934895833333  C 2.16245993589744 5.99934895833333  2.64433092948718 6.22819010416667  3.09044471153846 6.68587239583333  C 3.53655849358974 7.1435546875  3.87880608974359 7.69607204861111  4.1171875 8.34342447916667  Z M 6.52824519230769 10.6256510416667  C 7.23657852564103 10.1391059027778  7.89383012820513 9.89583333333333  8.5 9.89583333333333  C 9.3036858974359 9.89583333333333  10.1720753205128 10.2978515625  11.1051682692308 11.1018880208333  C 12.0382612179487 11.9059244791667  12.818108974359 12.8831380208333  13.4447115384615 14.0335286458333  C 14.0713141025641 15.1839192708333  14.3846153846154 16.2332899305556  14.3846153846154 17.181640625  C 14.3846153846154 17.5609809027778  14.3267227564103 17.8764105902778  14.2109375 18.1279296875  C 14.0951522435897 18.3794487847222  13.9299879807692 18.5649956597222  13.7154447115385 18.6845703125  C 13.5009014423077 18.8041449652778  13.28125 18.8866102430556  13.0564903846154 18.9319661458333  C 12.8317307692308 18.9773220486111  12.5729166666667 19  12.2800480769231 19  C 11.8169070512821 19  11.1783854166667 18.814453125  10.3644831730769 18.443359375  C 9.55058092948718 18.072265625  8.92908653846154 17.88671875  8.5 17.88671875  C 8.05048076923077 17.88671875  7.39493189102564 18.0702039930556  6.53335336538462 18.4371744791667  C 5.67177483974359 18.8041449652778  4.98898237179487 18.9876302083333  4.48497596153846 18.9876302083333  C 3.23858173076923 18.9876302083333  2.61538461538462 18.3856336805556  2.61538461538462 17.181640625  C 2.61538461538462 16.4724392361111  2.80608974358974 15.6828342013889  3.1875 14.8128255208333  C 3.56891025641026 13.9428168402778  4.0439703525641 13.1490885416667  4.61268028846154 12.431640625  C 5.18139022435897 11.7141927083333  5.81991185897436 11.1121961805556  6.52824519230769 10.6256510416667  Z M 12.3515625 6.57454427083333  C 11.9292868589744 7.04871961805555  11.4593349358974 7.28580729166667  10.9417067307692 7.28580729166667  C 10.5262419871795 7.28580729166667  10.1686698717949 7.125  9.86899038461539 6.80338541666667  C 9.5693108974359 6.48177083333333  9.35476762820513 6.10036892361111  9.22536057692308 5.6591796875  C 9.09595352564103 5.21799045138889  9.03125 4.75  9.03125 4.25520833333333  C 9.03125 3.64496527777778  9.13341346153846 3.02029079861111  9.33774038461539 2.38118489583333  C 9.54206730769231 1.74207899305555  9.85366586538462 1.18543836805555  10.2725360576923 0.711263020833334  C 10.69140625 0.23708767361111  11.1630608974359 0  11.6875 0  C 12.1029647435897 0  12.4605368589744 0.160807291666666  12.7602163461538 0.482421875  C 13.0598958333333 0.804036458333334  13.2744391025641 1.18543836805555  13.4038461538462 1.62662760416667  C 13.5332532051282 2.06781684027778  13.5979567307692 2.53580729166667  13.5979567307692 3.03059895833333  C 13.5979567307692 3.63259548611111  13.4957932692308 4.25520833333333  13.2914663461538 4.8984375  C 13.0871394230769 5.54166666666667  12.7738381410256 6.10036892361111  12.3515625 6.57454427083333  Z M 13.9095552884615 6.68587239583333  C 14.3556690705128 6.22819010416667  14.8375400641026 5.99934895833333  15.3551682692308 5.99934895833333  C 15.8796073717949 5.99934895833333  16.2848557692308 6.24468315972222  16.5709134615385 6.7353515625  C 16.8569711538462 7.22601996527778  17 7.80121527777778  17 8.4609375  C 17 9.07118055555555  16.8808092948718 9.69791666666667  16.6424278846154 10.3411458333333  C 16.404046474359 10.984375  16.0617988782051 11.5348307291667  15.6156850961538 11.9925130208333  C 15.1695713141026 12.4501953125  14.6877003205128 12.6790364583333  14.1700721153846 12.6790364583333  C 13.6456330128205 12.6790364583333  13.2403846153846 12.4357638888889  12.9543269230769 11.94921875  C 12.6682692307692 11.4626736111111  12.5252403846154 10.8895399305556  12.5252403846154 10.2298177083333  C 12.5252403846154 9.61957465277778  12.6444310897436 8.99077690972222  12.8828125 8.34342447916667  C 13.1211939102564 7.69607204861111  13.4634415064103 7.1435546875  13.9095552884615 6.68587239583333  Z " fill-rule="nonzero" fill="#000000" stroke="none" transform="matrix(1 0 0 1 8 381 )" />
  </g>
</svg>