<?xml version="1.0" encoding="utf-8"?>
<svg version="1.1" xmlns:xlink="http://www.w3.org/1999/xlink" width="17px" height="17px" xmlns="http://www.w3.org/2000/svg">
  <g transform="matrix(1 0 0 1 0 -3 )">
    <path d="M 8.5 5  C 12.14 5  15 7.86  15 11.5  C 15 15.14  12.14 18  8.5 18  C 4.86 18  2 15.14  2 11.5  C 2 7.86  4.86 5  8.5 5  Z " fill-rule="nonzero" fill="#ff0000" stroke="none" />
    <path d="M 8.5 4.5  C 12.42 4.5  15.5 7.58  15.5 11.5  C 15.5 15.42  12.42 18.5  8.5 18.5  C 4.58 18.5  1.5 15.42  1.5 11.5  C 1.5 7.58  4.58 4.5  8.5 4.5  Z " stroke-width="3" stroke="#ffffff" fill="none" />
  </g>
</svg>