<?xml version="1.0" encoding="utf-8"?>
<svg version="1.1" xmlns:xlink="http://www.w3.org/1999/xlink" width="23px" height="23px" xmlns="http://www.w3.org/2000/svg">
  <g transform="matrix(1 0 0 1 -20 -759 )">
    <path d="M 14.8368967623702 6.65974343310935  L 16.3402565668907 8.16310323762981  L 20.4569334147831 4.04642638973732  L 18.9535736102627 2.54306658521686  L 14.8368967623702 6.65974343310935  Z M 22.3677458766035 3.41417226634087  C 22.5363469761759 3.58277336591326  22.6206475259621 3.79352474037874  22.6206475259621 4.04642638973732  C 22.6206475259621 4.29932803909591  22.5363469761759 4.51007941356139  22.3677458766035 4.67868051313378  L 4.29932803909591 22.7470983506414  C 4.13072693952352 22.9156994502138  3.91997556505803 23  3.66707391569945 23  C 3.41417226634087 23  3.20342089187538 22.9156994502138  3.03481979230299 22.7470983506414  L 0.252901649358583 19.965180207697  C 0.0843005497861945 19.7965791081246  0 19.5858277336591  0 19.3329260843005  C 0 19.080024434942  0.0843005497861945 18.8692730604765  0.252901649358583 18.7006719609041  L 18.3213194868662 0.632254123396457  C 18.4899205864386 0.463653023824069  18.7006719609041 0.379352474037874  18.9535736102627 0.379352474037874  C 19.2064752596213 0.379352474037874  19.4172266340867 0.463653023824069  19.5858277336591 0.632254123396457  L 22.3677458766035 3.41417226634087  Z M 3.21747098350641 0  L 3.63897373243739 1.37690897984117  L 5.01588271227856 1.79841172877214  L 3.63897373243739 2.21991447770311  L 3.21747098350641 3.59682345754429  L 2.79596823457544 2.21991447770311  L 1.41905925473427 1.79841172877214  L 2.79596823457544 1.37690897984117  L 3.21747098350641 0  Z M 7.71350030543677 0.899205864386073  L 8.55650580329872 3.65302382406842  L 11.3103237629811 4.49602932193036  L 8.55650580329872 5.3390348197923  L 7.71350030543677 8.09285277947465  L 6.87049480757483 5.3390348197923  L 4.11667684789249 4.49602932193036  L 6.87049480757483 3.65302382406842  L 7.71350030543677 0.899205864386073  Z M 21.2015882712279 8.99205864386072  L 21.6230910201588 10.3689676237019  L 23 10.7904703726329  L 21.6230910201588 11.2119731215638  L 21.2015882712279 12.588882101405  L 20.7800855222969 11.2119731215638  L 19.4031765424557 10.7904703726329  L 20.7800855222969 10.3689676237019  L 21.2015882712279 8.99205864386072  Z M 12.2095296273671 0  L 12.6310323762981 1.37690897984117  L 14.0079413561393 1.79841172877214  L 12.6310323762981 2.21991447770311  L 12.2095296273671 3.59682345754429  L 11.7880268784362 2.21991447770311  L 10.411117898595 1.79841172877214  L 11.7880268784362 1.37690897984117  L 12.2095296273671 0  Z " fill-rule="nonzero" fill="#000000" stroke="none" transform="matrix(1 0 0 1 20 759 )" />
  </g>
</svg>