<?xml version="1.0" encoding="utf-8"?>
<svg version="1.1" xmlns:xlink="http://www.w3.org/1999/xlink" width="14px" height="15px" xmlns="http://www.w3.org/2000/svg">
  <g transform="matrix(1 0 0 1 -13 -488 )">
    <path d="M 6.31009615384615 1.8798828125  C 6.47836538461539 2.38444010416667  6.5625 2.87760416666667  6.5625 3.359375  C 6.5625 3.75  6.50921474358974 4.11946614583333  6.40264423076923 4.4677734375  C 6.29607371794872 4.81608072916667  6.11939102564103 5.1171875  5.87259615384615 5.37109375  C 5.62580128205128 5.625  5.33133012820513 5.751953125  4.98918269230769 5.751953125  C 4.56290064102564 5.751953125  4.17588141025641 5.56477864583333  3.828125 5.1904296875  C 3.48036858974359 4.81608072916667  3.22235576923077 4.375  3.05408653846154 3.8671875  C 2.88581730769231 3.359375  2.80168269230769 2.86783854166667  2.80168269230769 2.392578125  C 2.80168269230769 2.001953125  2.85496794871795 1.63248697916667  2.96153846153846 1.2841796875  C 3.06810897435897 0.935872395833332  3.24479166666667 0.634765625000001  3.49158653846154 0.380859375  C 3.73838141025641 0.126953124999999  4.03285256410256 0  4.375 0  C 4.80689102564103 0  5.1953125 0.187174479166666  5.54026442307692 0.561523437500001  C 5.88521634615385 0.935872395833332  6.14182692307692 1.37532552083333  6.31009615384615 1.8798828125  Z M 3.390625 6.5869140625  C 3.5869391025641 7.09798177083333  3.68509615384615 7.59440104166667  3.68509615384615 8.076171875  C 3.68509615384615 8.59700520833333  3.56730769230769 9.04947916666667  3.33173076923077 9.43359375  C 3.09615384615385 9.81770833333333  2.76241987179487 10.009765625  2.33052884615385 10.009765625  C 1.9042467948718 10.009765625  1.50741185897436 9.8291015625  1.14002403846154 9.4677734375  C 0.772636217948718 9.1064453125  0.490785256410256 8.671875  0.294471153846154 8.1640625  C 0.0981570512820513 7.65625  0 7.16145833333333  0 6.6796875  C 0 6.15885416666667  0.117788461538462 5.70475260416667  0.353365384615385 5.3173828125  C 0.588942307692308 4.93001302083333  0.922676282051282 4.736328125  1.35456730769231 4.736328125  C 1.78084935897436 4.736328125  2.1776842948718 4.9169921875  2.54507211538462 5.2783203125  C 2.91245993589744 5.6396484375  3.1943108974359 6.07584635416667  3.390625 6.5869140625  Z M 5.37620192307692 8.388671875  C 5.95953525641026 8.00455729166666  6.50080128205128 7.8125  7 7.8125  C 7.66185897435898 7.8125  8.3770032051282 8.1298828125  9.14543269230769 8.7646484375  C 9.91386217948718 9.3994140625  10.5560897435897 10.1708984375  11.0721153846154 11.0791015625  C 11.588141025641 11.9873046875  11.8461538461538 12.8157552083333  11.8461538461538 13.564453125  C 11.8461538461538 13.8639322916667  11.7984775641026 14.1129557291667  11.703125 14.3115234375  C 11.6077724358974 14.5100911458333  11.4717548076923 14.6565755208333  11.2950721153846 14.7509765625  C 11.1183894230769 14.8453776041667  10.9375 14.9104817708333  10.7524038461538 14.9462890625  C 10.5673076923077 14.9820963541667  10.3541666666667 15  10.1129807692308 15  C 9.73157051282051 15  9.20572916666667 14.853515625  8.53545673076923 14.560546875  C 7.86518429487179 14.267578125  7.35336538461538 14.12109375  7 14.12109375  C 6.62980769230769 14.12109375  6.08994391025641 14.2659505208333  5.38040865384615 14.5556640625  C 4.6708733974359 14.8453776041667  4.10857371794872 14.990234375  3.69350961538462 14.990234375  C 2.66706730769231 14.990234375  2.15384615384615 14.5149739583333  2.15384615384615 13.564453125  C 2.15384615384615 13.0045572916667  2.31089743589744 12.3811848958333  2.625 11.6943359375  C 2.93910256410256 11.0074869791667  3.33032852564103 10.380859375  3.79867788461539 9.814453125  C 4.26702724358974 9.248046875  4.79286858974359 8.77278645833333  5.37620192307692 8.388671875  Z M 10.171875 5.1904296875  C 9.82411858974359 5.56477864583333  9.43709935897436 5.751953125  9.01081730769231 5.751953125  C 8.66866987179487 5.751953125  8.37419871794872 5.625  8.12740384615385 5.37109375  C 7.88060897435898 5.1171875  7.70392628205128 4.81608072916667  7.59735576923077 4.4677734375  C 7.49078525641026 4.11946614583333  7.4375 3.75  7.4375 3.359375  C 7.4375 2.87760416666667  7.52163461538462 2.38444010416667  7.68990384615385 1.8798828125  C 7.85817307692308 1.37532552083333  8.11478365384615 0.935872395833332  8.45973557692308 0.561523437500001  C 8.8046875 0.187174479166666  9.19310897435897 0  9.625 0  C 9.96714743589744 0  10.2616185897436 0.126953124999999  10.5084134615385 0.380859375  C 10.7552083333333 0.634765625000001  10.931891025641 0.935872395833332  11.0384615384615 1.2841796875  C 11.1450320512821 1.63248697916667  11.1983173076923 2.001953125  11.1983173076923 2.392578125  C 11.1983173076923 2.86783854166667  11.1141826923077 3.359375  10.9459134615385 3.8671875  C 10.7776442307692 4.375  10.5196314102564 4.81608072916667  10.171875 5.1904296875  Z M 11.4549278846154 5.2783203125  C 11.8223157051282 4.9169921875  12.2191506410256 4.736328125  12.6454326923077 4.736328125  C 13.0773237179487 4.736328125  13.4110576923077 4.93001302083333  13.6466346153846 5.3173828125  C 13.8822115384615 5.70475260416667  14 6.15885416666667  14 6.6796875  C 14 7.16145833333333  13.901842948718 7.65625  13.7055288461538 8.1640625  C 13.5092147435897 8.671875  13.2273637820513 9.1064453125  12.8599759615385 9.4677734375  C 12.4925881410256 9.8291015625  12.0957532051282 10.009765625  11.6694711538462 10.009765625  C 11.2375801282051 10.009765625  10.9038461538462 9.81770833333333  10.6682692307692 9.43359375  C 10.4326923076923 9.04947916666667  10.3149038461538 8.59700520833333  10.3149038461538 8.076171875  C 10.3149038461538 7.59440104166667  10.4130608974359 7.09798177083333  10.609375 6.5869140625  C 10.8056891025641 6.07584635416667  11.0875400641026 5.6396484375  11.4549278846154 5.2783203125  Z " fill-rule="nonzero" fill="#000000" stroke="none" transform="matrix(1 0 0 1 13 488 )" />
  </g>
</svg>