<?xml version="1.0" encoding="utf-8"?>
<svg version="1.1" xmlns:xlink="http://www.w3.org/1999/xlink" width="14px" height="16px" xmlns="http://www.w3.org/2000/svg">
  <g transform="matrix(1 0 0 1 -5 -303 )">
    <path d="M 6.31009615384615 2.00520833333333  C 6.47836538461539 2.54340277777778  6.5625 3.06944444444444  6.5625 3.58333333333333  C 6.5625 4  6.50921474358974 4.39409722222222  6.40264423076923 4.765625  C 6.29607371794872 5.13715277777778  6.11939102564103 5.45833333333333  5.87259615384615 5.72916666666667  C 5.62580128205128 6  5.33133012820513 6.13541666666667  4.98918269230769 6.13541666666667  C 4.56290064102564 6.13541666666667  4.17588141025641 5.93576388888889  3.828125 5.53645833333333  C 3.48036858974359 5.13715277777778  3.22235576923077 4.66666666666667  3.05408653846154 4.125  C 2.88581730769231 3.58333333333333  2.80168269230769 3.05902777777778  2.80168269230769 2.55208333333333  C 2.80168269230769 2.13541666666667  2.85496794871795 1.74131944444444  2.96153846153846 1.36979166666667  C 3.06810897435897 0.998263888888888  3.24479166666667 0.677083333333334  3.49158653846154 0.40625  C 3.73838141025641 0.135416666666666  4.03285256410256 0  4.375 0  C 4.80689102564103 0  5.1953125 0.199652777777777  5.54026442307692 0.598958333333334  C 5.88521634615385 0.998263888888888  6.14182692307692 1.46701388888889  6.31009615384615 2.00520833333333  Z M 3.390625 7.02604166666667  C 3.5869391025641 7.57118055555556  3.68509615384615 8.10069444444444  3.68509615384615 8.61458333333333  C 3.68509615384615 9.17013888888889  3.56730769230769 9.65277777777778  3.33173076923077 10.0625  C 3.09615384615385 10.4722222222222  2.76241987179487 10.6770833333333  2.33052884615385 10.6770833333333  C 1.9042467948718 10.6770833333333  1.50741185897436 10.484375  1.14002403846154 10.0989583333333  C 0.772636217948718 9.71354166666667  0.490785256410256 9.25  0.294471153846154 8.70833333333333  C 0.0981570512820513 8.16666666666667  0 7.63888888888889  0 7.125  C 0 6.56944444444444  0.117788461538462 6.08506944444444  0.353365384615385 5.671875  C 0.588942307692308 5.25868055555556  0.922676282051282 5.05208333333333  1.35456730769231 5.05208333333333  C 1.78084935897436 5.05208333333333  2.1776842948718 5.24479166666667  2.54507211538462 5.63020833333333  C 2.91245993589744 6.015625  3.1943108974359 6.48090277777778  3.390625 7.02604166666667  Z M 5.37620192307692 8.94791666666667  C 5.95953525641026 8.53819444444444  6.50080128205128 8.33333333333333  7 8.33333333333333  C 7.66185897435898 8.33333333333333  8.3770032051282 8.671875  9.14543269230769 9.34895833333333  C 9.91386217948718 10.0260416666667  10.5560897435897 10.8489583333333  11.0721153846154 11.8177083333333  C 11.588141025641 12.7864583333333  11.8461538461538 13.6701388888889  11.8461538461538 14.46875  C 11.8461538461538 14.7881944444444  11.7984775641026 15.0538194444444  11.703125 15.265625  C 11.6077724358974 15.4774305555556  11.4717548076923 15.6336805555556  11.2950721153846 15.734375  C 11.1183894230769 15.8350694444444  10.9375 15.9045138888889  10.7524038461538 15.9427083333333  C 10.5673076923077 15.9809027777778  10.3541666666667 16  10.1129807692308 16  C 9.73157051282051 16  9.20572916666667 15.84375  8.53545673076923 15.53125  C 7.86518429487179 15.21875  7.35336538461538 15.0625  7 15.0625  C 6.62980769230769 15.0625  6.08994391025641 15.2170138888889  5.38040865384615 15.5260416666667  C 4.6708733974359 15.8350694444444  4.10857371794872 15.9895833333333  3.69350961538462 15.9895833333333  C 2.66706730769231 15.9895833333333  2.15384615384615 15.4826388888889  2.15384615384615 14.46875  C 2.15384615384615 13.8715277777778  2.31089743589744 13.2065972222222  2.625 12.4739583333333  C 2.93910256410256 11.7413194444444  3.33032852564103 11.0729166666667  3.79867788461539 10.46875  C 4.26702724358974 9.86458333333333  4.79286858974359 9.35763888888889  5.37620192307692 8.94791666666667  Z M 10.171875 5.53645833333333  C 9.82411858974359 5.93576388888889  9.43709935897436 6.13541666666667  9.01081730769231 6.13541666666667  C 8.66866987179487 6.13541666666667  8.37419871794872 6  8.12740384615385 5.72916666666667  C 7.88060897435898 5.45833333333333  7.70392628205128 5.13715277777778  7.59735576923077 4.765625  C 7.49078525641026 4.39409722222222  7.4375 4  7.4375 3.58333333333333  C 7.4375 3.06944444444444  7.52163461538462 2.54340277777778  7.68990384615385 2.00520833333333  C 7.85817307692308 1.46701388888889  8.11478365384615 0.998263888888888  8.45973557692308 0.598958333333334  C 8.8046875 0.199652777777777  9.19310897435897 0  9.625 0  C 9.96714743589744 0  10.2616185897436 0.135416666666666  10.5084134615385 0.40625  C 10.7552083333333 0.677083333333334  10.931891025641 0.998263888888888  11.0384615384615 1.36979166666667  C 11.1450320512821 1.74131944444444  11.1983173076923 2.13541666666667  11.1983173076923 2.55208333333333  C 11.1983173076923 3.05902777777778  11.1141826923077 3.58333333333333  10.9459134615385 4.125  C 10.7776442307692 4.66666666666667  10.5196314102564 5.13715277777778  10.171875 5.53645833333333  Z M 11.4549278846154 5.63020833333333  C 11.8223157051282 5.24479166666667  12.2191506410256 5.05208333333333  12.6454326923077 5.05208333333333  C 13.0773237179487 5.05208333333333  13.4110576923077 5.25868055555556  13.6466346153846 5.671875  C 13.8822115384615 6.08506944444444  14 6.56944444444444  14 7.125  C 14 7.63888888888889  13.901842948718 8.16666666666667  13.7055288461538 8.70833333333333  C 13.5092147435897 9.25  13.2273637820513 9.71354166666667  12.8599759615385 10.0989583333333  C 12.4925881410256 10.484375  12.0957532051282 10.6770833333333  11.6694711538462 10.6770833333333  C 11.2375801282051 10.6770833333333  10.9038461538462 10.4722222222222  10.6682692307692 10.0625  C 10.4326923076923 9.65277777777778  10.3149038461538 9.17013888888889  10.3149038461538 8.61458333333333  C 10.3149038461538 8.10069444444444  10.4130608974359 7.57118055555556  10.609375 7.02604166666667  C 10.8056891025641 6.48090277777778  11.0875400641026 6.015625  11.4549278846154 5.63020833333333  Z " fill-rule="nonzero" fill="#000000" stroke="none" transform="matrix(1 0 0 1 5 303 )" />
  </g>
</svg>