<?xml version="1.0" encoding="utf-8"?>
<svg version="1.1" xmlns:xlink="http://www.w3.org/1999/xlink" width="36px" height="50px" xmlns="http://www.w3.org/2000/svg">
  <g transform="matrix(1 0 0 1 -166 -390 )">
    <path d="M 35.40625 19.8016826923077  C 35.8020833333333 20.1822916666667  36 20.6330128205128  36 21.1538461538462  L 36 25  C 36 29.4270833333333  34.4635416666667 33.2782451923077  31.390625 36.5534855769231  C 28.3177083333333 39.8287259615385  24.5208333333333 41.7067307692308  20 42.1875  L 20 46.1538461538462  L 28 46.1538461538462  C 28.5416666666667 46.1538461538462  29.0104166666667 46.3441506410256  29.40625 46.7247596153846  C 29.8020833333333 47.1053685897436  30 47.5560897435897  30 48.0769230769231  C 30 48.5977564102564  29.8020833333333 49.0484775641026  29.40625 49.4290865384615  C 29.0104166666667 49.8096955128205  28.5416666666667 50  28 50  L 8 50  C 7.45833333333333 50  6.98958333333333 49.8096955128205  6.59375 49.4290865384615  C 6.19791666666667 49.0484775641026  6 48.5977564102564  6 48.0769230769231  C 6 47.5560897435897  6.19791666666667 47.1053685897436  6.59375 46.7247596153846  C 6.98958333333333 46.3441506410256  7.45833333333333 46.1538461538462  8 46.1538461538462  L 16 46.1538461538462  L 16 42.1875  C 11.4791666666667 41.7067307692308  7.68229166666667 39.8287259615385  4.609375 36.5534855769231  C 1.53645833333333 33.2782451923077  0 29.4270833333333  0 25  L 0 21.1538461538462  C 0 20.6330128205128  0.197916666666667 20.1822916666667  0.59375 19.8016826923077  C 0.989583333333333 19.4210737179487  1.45833333333333 19.2307692307692  2 19.2307692307692  C 2.54166666666667 19.2307692307692  3.01041666666667 19.4210737179487  3.40625 19.8016826923077  C 3.80208333333333 20.1822916666667  4 20.6330128205128  4 21.1538461538462  L 4 25  C 4 28.7059294871795  5.36979166666667 31.8760016025641  8.109375 34.5102163461538  C 10.8489583333333 37.1444310897436  14.1458333333333 38.4615384615385  18 38.4615384615385  C 21.8541666666667 38.4615384615385  25.1510416666667 37.1444310897436  27.890625 34.5102163461538  C 30.6302083333333 31.8760016025641  32 28.7059294871795  32 25  L 32 21.1538461538462  C 32 20.6330128205128  32.1979166666667 20.1822916666667  32.59375 19.8016826923077  C 32.9895833333333 19.4210737179487  33.4583333333333 19.2307692307692  34 19.2307692307692  C 34.5416666666667 19.2307692307692  35.0104166666667 19.4210737179487  35.40625 19.8016826923077  Z M 25.0625 2.82451923076923  C 27.0208333333333 4.70753205128205  28 6.97115384615384  28 9.61538461538462  L 28 25  C 28 27.6442307692308  27.0208333333333 29.9078525641026  25.0625 31.7908653846154  C 23.1041666666667 33.6738782051282  20.75 34.6153846153846  18 34.6153846153846  C 15.25 34.6153846153846  12.8958333333333 33.6738782051282  10.9375 31.7908653846154  C 8.97916666666667 29.9078525641026  8 27.6442307692308  8 25  L 8 9.61538461538462  C 8 6.97115384615384  8.97916666666667 4.70753205128205  10.9375 2.82451923076923  C 12.8958333333333 0.941506410256415  15.25 0  18 0  C 20.75 0  23.1041666666667 0.941506410256415  25.0625 2.82451923076923  Z " fill-rule="nonzero" fill="#0c5757" stroke="none" transform="matrix(1 0 0 1 166 390 )" />
  </g>
</svg>