<?xml version="1.0" encoding="utf-8"?>
<svg version="1.1" xmlns:xlink="http://www.w3.org/1999/xlink" width="32px" height="33px" xmlns="http://www.w3.org/2000/svg">
  <g transform="matrix(1 0 0 1 -175 -379 )">
    <path d="M 7.96875 2.212890625  C 10.4201388888889 0.73763020833333  13.0972222222222 0  16 0  C 18.9027777777778 0  21.5798611111111 0.73763020833333  24.03125 2.212890625  C 26.4826388888889 3.68815104166666  28.4236111111111 5.68977864583333  29.8541666666667 8.2177734375  C 31.2847222222222 10.7457682291667  32 13.5065104166667  32 16.5  C 32 19.4934895833333  31.2847222222222 22.2542317708333  29.8541666666667 24.7822265625  C 28.4236111111111 27.3102213541667  26.4826388888889 29.3118489583333  24.03125 30.787109375  C 21.5798611111111 32.2623697916667  18.9027777777778 33  16 33  C 13.0972222222222 33  10.4201388888889 32.2623697916667  7.96875 30.787109375  C 5.51736111111111 29.3118489583333  3.57638888888889 27.3102213541667  2.14583333333333 24.7822265625  C 0.715277777777778 22.2542317708333  0 19.4934895833333  0 16.5  C 0 13.5065104166667  0.715277777777778 10.7457682291667  2.14583333333333 8.2177734375  C 3.57638888888889 5.68977864583333  5.51736111111111 3.68815104166666  7.96875 2.212890625  Z M 10.3125 26.619140625  C 12.0486111111111 27.6647135416667  13.9444444444444 28.1875  16 28.1875  C 18.0555555555556 28.1875  19.9513888888889 27.6647135416667  21.6875 26.619140625  C 23.4236111111111 25.5735677083333  24.7986111111111 24.1555989583333  25.8125 22.365234375  C 26.8263888888889 20.5748697916667  27.3333333333333 18.6197916666667  27.3333333333333 16.5  C 27.3333333333333 14.3802083333333  26.8263888888889 12.4251302083333  25.8125 10.634765625  C 24.7986111111111 8.84440104166666  23.4236111111111 7.42643229166666  21.6875 6.380859375  C 19.9513888888889 5.33528645833333  18.0555555555556 4.8125  16 4.8125  C 13.9444444444444 4.8125  12.0486111111111 5.33528645833333  10.3125 6.380859375  C 8.57638888888889 7.42643229166666  7.20138888888889 8.84440104166666  6.1875 10.634765625  C 5.17361111111111 12.4251302083333  4.66666666666667 14.3802083333333  4.66666666666667 16.5  C 4.66666666666667 18.6197916666667  5.17361111111111 20.5748697916667  6.1875 22.365234375  C 7.20138888888889 24.1555989583333  8.57638888888889 25.5735677083333  10.3125 26.619140625  Z M 22 23  L 10 23  C 9.80555555555556 23.375  9.64583333333333 23.310546875  9.52083333333333 23.181640625  C 9.39583333333333 23.052734375  9.33333333333333 22.8880208333333  9.33333333333333 22.6875  L 9.33333333333333 10.3125  C 9.33333333333333 10.1119791666667  9.39583333333333 9.947265625  9.52083333333333 9.818359375  C 9.64583333333333 9.689453125  9.80555555555556 9.625  10 10  L 22 10  C 22.1944444444444 9.625  22.3541666666667 9.689453125  22.4791666666667 9.818359375  C 22.6041666666667 9.947265625  22.6666666666667 10.1119791666667  22.6666666666667 10.3125  L 22.6666666666667 22.6875  C 22.6666666666667 22.8880208333333  22.6041666666667 23.052734375  22.4791666666667 23.181640625  C 22.3541666666667 23.310546875  22.1944444444444 23.375  22 23  Z " fill-rule="nonzero" fill="#000000" stroke="none" transform="matrix(1 0 0 1 175 379 )" />
  </g>
</svg>