<?xml version="1.0" encoding="utf-8"?>
<svg version="1.1" xmlns:xlink="http://www.w3.org/1999/xlink" width="84px" height="98px" xmlns="http://www.w3.org/2000/svg">
  <g transform="matrix(1 0 0 1 -144 -331 )">
    <path d="M 70 28  C 70 33.359375  68.5598958333333 38.3177083333333  65.6796875 42.875  C 67.3932291666667 43.3854166666667  69.0247395833333 44.078125  70.57421875 44.953125  C 72.1236979166667 45.828125  73.74609375 47.1588541666667  75.44140625 48.9453125  C 77.13671875 50.7317708333333  78.5859375 52.8372395833333  79.7890625 55.26171875  C 80.9921875 57.6861979166667  81.9947916666667 60.8216145833333  82.796875 64.66796875  C 83.5989583333333 68.5143229166667  84 72.8255208333333  84 77.6015625  C 84 83.2161458333333  82.1770833333333 88.01953125  78.53125 92.01171875  C 74.8854166666667 96.00390625  70.4921875 98  65.3515625 98  L 18.6484375 98  C 13.5078125 98  9.11458333333333 96.00390625  5.46875 92.01171875  C 1.82291666666667 88.01953125  0 83.2161458333333  0 77.6015625  C 0 72.8255208333333  0.401041666666667 68.5143229166667  1.203125 64.66796875  C 2.00520833333333 60.8216145833333  3.0078125 57.6861979166667  4.2109375 55.26171875  C 5.4140625 52.8372395833333  6.86328125 50.7317708333333  8.55859375 48.9453125  C 10.25390625 47.1588541666667  11.8763020833333 45.828125  13.42578125 44.953125  C 14.9752604166667 44.078125  16.6067708333333 43.3854166666667  18.3203125 42.875  C 15.4401041666667 38.3177083333333  14 33.359375  14 28  C 14 24.2083333333333  14.73828125 20.58984375  16.21484375 17.14453125  C 17.69140625 13.69921875  19.6875 10.71875  22.203125 8.20312499999999  C 24.71875 5.6875  27.69921875 3.69140625  31.14453125 2.21484375  C 34.58984375 0.738281249999995  38.2083333333333 0  42 0  C 45.7916666666667 0  49.41015625 0.738281249999995  52.85546875 2.21484375  C 56.30078125 3.69140625  59.28125 5.6875  61.796875 8.20312499999999  C 64.3125 10.71875  66.30859375 13.69921875  67.78515625 17.14453125  C 69.26171875 20.58984375  70 24.2083333333333  70 28  Z M 56.84765625 13.15234375  C 52.74609375 9.05078125  47.796875 7  42 7  C 36.203125 7  31.25390625 9.05078125  27.15234375 13.15234375  C 23.05078125 17.25390625  21 22.203125  21 28  C 21 33.796875  23.05078125 38.74609375  27.15234375 42.84765625  C 31.25390625 46.94921875  36.203125 49  42 49  C 47.796875 49  52.74609375 46.94921875  56.84765625 42.84765625  C 60.94921875 38.74609375  63 33.796875  63 28  C 63 22.203125  60.94921875 17.25390625  56.84765625 13.15234375  Z M 18.6484375 91  L 65.3515625 91  C 68.5598958333333 91  71.3033854166667 89.6966145833333  73.58203125 87.08984375  C 75.8606770833333 84.4830729166667  77 81.3203125  77 77.6015625  C 77 68.8880208333333  75.5690104166667 62.015625  72.70703125 56.984375  C 69.8450520833333 51.953125  65.734375 49.3098958333333  60.375 49.0546875  C 55.0885416666667 53.6848958333333  48.9635416666667 56  42 56  C 35.0364583333333 56  28.9114583333333 53.6848958333333  23.625 49.0546875  C 18.265625 49.3098958333333  14.1549479166667 51.953125  11.29296875 56.984375  C 8.43098958333333 62.015625  7 68.8880208333333  7 77.6015625  C 7 81.3203125  8.13932291666667 84.4830729166667  10.41796875 87.08984375  C 12.6966145833333 89.6966145833333  15.4401041666667 91  18.6484375 91  Z " fill-rule="nonzero" fill="#fcf9f9" stroke="none" transform="matrix(1 0 0 1 144 331 )" />
  </g>
</svg>