<?xml version="1.0" encoding="utf-8"?>
<svg version="1.1" xmlns:xlink="http://www.w3.org/1999/xlink" width="17px" height="17px" xmlns="http://www.w3.org/2000/svg">
  <g transform="matrix(1 0 0 1 -6 -184 )">
    <path d="M 7.66225961538462 2.13053385416667  C 7.86658653846154 2.70236545138889  7.96875 3.26128472222222  7.96875 3.80729166666667  C 7.96875 4.25  7.90404647435898 4.66872829861111  7.77463942307692 5.0634765625  C 7.64523237179487 5.45822482638889  7.4306891025641 5.79947916666667  7.13100961538462 6.08723958333333  C 6.83133012820513 6.375  6.47375801282051 6.51888020833333  6.05829326923077 6.51888020833333  C 5.54066506410256 6.51888020833333  5.07071314102564 6.30674913194444  4.6484375 5.88248697916667  C 4.22616185897436 5.45822482638889  3.91286057692308 4.95833333333333  3.70853365384615 4.3828125  C 3.50420673076923 3.80729166666667  3.40204326923077 3.25021701388889  3.40204326923077 2.71158854166667  C 3.40204326923077 2.26888020833333  3.4667467948718 1.85015190972222  3.59615384615385 1.45540364583333  C 3.7255608974359 1.06065538194444  3.94010416666667 0.719401041666667  4.23978365384615 0.431640625  C 4.53946314102564 0.143880208333333  4.89703525641026 0  5.3125 0  C 5.8369391025641 0  6.30859375 0.212131076388888  6.72746394230769 0.636393229166667  C 7.14633413461538 1.06065538194444  7.45793269230769 1.55870225694444  7.66225961538462 2.13053385416667  Z M 4.1171875 7.46516927083333  C 4.35556891025641 8.04437934027778  4.47475961538462 8.60698784722222  4.47475961538462 9.15299479166667  C 4.47475961538462 9.74327256944444  4.33173076923077 10.2560763888889  4.04567307692308 10.69140625  C 3.75961538461538 11.1267361111111  3.35436698717949 11.3444010416667  2.82992788461538 11.3444010416667  C 2.31229967948718 11.3444010416667  1.83042868589744 11.1396484375  1.38431490384615 10.7301432291667  C 0.938201121794872 10.3206380208333  0.595953525641026 9.828125  0.357572115384615 9.25260416666667  C 0.119190705128205 8.67708333333333  0 8.11631944444444  0 7.5703125  C 0 6.98003472222222  0.143028846153846 6.46538628472222  0.429086538461538 6.0263671875  C 0.715144230769231 5.58734809027778  1.12039262820513 5.36783854166667  1.64483173076923 5.36783854166667  C 2.16245993589744 5.36783854166667  2.64433092948718 5.57259114583333  3.09044471153846 5.98209635416667  C 3.53655849358974 6.3916015625  3.87880608974359 6.88595920138889  4.1171875 7.46516927083333  Z M 6.52824519230769 9.50716145833333  C 7.23657852564103 9.07183159722222  7.89383012820513 8.85416666666667  8.5 8.85416666666667  C 9.3036858974359 8.85416666666667  10.1720753205128 9.2138671875  11.1051682692308 9.93326822916667  C 12.0382612179487 10.6526692708333  12.818108974359 11.5270182291667  13.4447115384615 12.5563151041667  C 14.0713141025641 13.5856119791667  14.3846153846154 14.5245225694444  14.3846153846154 15.373046875  C 14.3846153846154 15.7124565972222  14.3267227564103 15.9946831597222  14.2109375 16.2197265625  C 14.0951522435897 16.4447699652778  13.9299879807692 16.6107855902778  13.7154447115385 16.7177734375  C 13.5009014423077 16.8247612847222  13.28125 16.8985460069444  13.0564903846154 16.9391276041667  C 12.8317307692308 16.9797092013889  12.5729166666667 17  12.2800480769231 17  C 11.8169070512821 17  11.1783854166667 16.833984375  10.3644831730769 16.501953125  C 9.55058092948718 16.169921875  8.92908653846154 16.00390625  8.5 16.00390625  C 8.05048076923077 16.00390625  7.39493189102564 16.1680772569444  6.53335336538462 16.4964192708333  C 5.67177483974359 16.8247612847222  4.98898237179487 16.9889322916667  4.48497596153846 16.9889322916667  C 3.23858173076923 16.9889322916667  2.61538461538462 16.4503038194444  2.61538461538462 15.373046875  C 2.61538461538462 14.7384982638889  2.80608974358974 14.0320095486111  3.1875 13.2535807291667  C 3.56891025641026 12.4751519097222  4.0439703525641 11.7649739583333  4.61268028846154 11.123046875  C 5.18139022435897 10.4811197916667  5.81991185897436 9.94249131944444  6.52824519230769 9.50716145833333  Z M 12.3515625 5.88248697916667  C 11.9292868589744 6.30674913194444  11.4593349358974 6.51888020833333  10.9417067307692 6.51888020833333  C 10.5262419871795 6.51888020833333  10.1686698717949 6.375  9.86899038461539 6.08723958333333  C 9.5693108974359 5.79947916666667  9.35476762820513 5.45822482638889  9.22536057692308 5.0634765625  C 9.09595352564103 4.66872829861111  9.03125 4.25  9.03125 3.80729166666667  C 9.03125 3.26128472222222  9.13341346153846 2.70236545138889  9.33774038461539 2.13053385416667  C 9.54206730769231 1.55870225694444  9.85366586538462 1.06065538194444  10.2725360576923 0.636393229166667  C 10.69140625 0.212131076388888  11.1630608974359 0  11.6875 0  C 12.1029647435897 0  12.4605368589744 0.143880208333333  12.7602163461538 0.431640625  C 13.0598958333333 0.719401041666667  13.2744391025641 1.06065538194444  13.4038461538462 1.45540364583333  C 13.5332532051282 1.85015190972222  13.5979567307692 2.26888020833333  13.5979567307692 2.71158854166667  C 13.5979567307692 3.25021701388889  13.4957932692308 3.80729166666667  13.2914663461538 4.3828125  C 13.0871394230769 4.95833333333333  12.7738381410256 5.45822482638889  12.3515625 5.88248697916667  Z M 13.9095552884615 5.98209635416667  C 14.3556690705128 5.57259114583333  14.8375400641026 5.36783854166667  15.3551682692308 5.36783854166667  C 15.8796073717949 5.36783854166667  16.2848557692308 5.58734809027778  16.5709134615385 6.0263671875  C 16.8569711538462 6.46538628472222  17 6.98003472222222  17 7.5703125  C 17 8.11631944444444  16.8808092948718 8.67708333333333  16.6424278846154 9.25260416666667  C 16.404046474359 9.828125  16.0617988782051 10.3206380208333  15.6156850961538 10.7301432291667  C 15.1695713141026 11.1396484375  14.6877003205128 11.3444010416667  14.1700721153846 11.3444010416667  C 13.6456330128205 11.3444010416667  13.2403846153846 11.1267361111111  12.9543269230769 10.69140625  C 12.6682692307692 10.2560763888889  12.5252403846154 9.74327256944444  12.5252403846154 9.15299479166667  C 12.5252403846154 8.60698784722222  12.6444310897436 8.04437934027778  12.8828125 7.46516927083333  C 13.1211939102564 6.88595920138889  13.4634415064103 6.3916015625  13.9095552884615 5.98209635416667  Z " fill-rule="nonzero" fill="#000000" stroke="none" transform="matrix(1 0 0 1 6 184 )" />
  </g>
</svg>