<?xml version="1.0" encoding="utf-8"?>
<svg version="1.1" xmlns:xlink="http://www.w3.org/1999/xlink" width="13px" height="14px" xmlns="http://www.w3.org/2000/svg">
  <g transform="matrix(1 0 0 1 -6 -30 )">
    <path d="M 5.859375 1.75455729166667  C 6.015625 2.22547743055555  6.09375 2.68576388888889  6.09375 3.13541666666667  C 6.09375 3.5  6.04427083333333 3.84483506944444  5.9453125 4.169921875  C 5.84635416666667 4.49500868055555  5.68229166666667 4.77604166666667  5.453125 5.01302083333333  C 5.22395833333333 5.25  4.95052083333333 5.36848958333333  4.6328125 5.36848958333333  C 4.23697916666667 5.36848958333333  3.87760416666667 5.19379340277778  3.5546875 4.84440104166667  C 3.23177083333333 4.49500868055555  2.9921875 4.08333333333333  2.8359375 3.609375  C 2.6796875 3.13541666666667  2.6015625 2.67664930555555  2.6015625 2.23307291666667  C 2.6015625 1.86848958333333  2.65104166666667 1.52365451388889  2.75 1.19856770833333  C 2.84895833333333 0.873480902777777  3.01302083333333 0.592447916666667  3.2421875 0.35546875  C 3.47135416666667 0.118489583333333  3.74479166666667 0  4.0625 0  C 4.46354166666667 0  4.82421875 0.174696180555555  5.14453125 0.524088541666667  C 5.46484375 0.873480902777777  5.703125 1.28363715277778  5.859375 1.75455729166667  Z M 3.1484375 6.14778645833333  C 3.33072916666667 6.62478298611111  3.421875 7.08810763888889  3.421875 7.53776041666667  C 3.421875 8.02387152777778  3.3125 8.44618055555556  3.09375 8.8046875  C 2.875 9.16319444444444  2.56510416666667 9.34244791666667  2.1640625 9.34244791666667  C 1.76822916666667 9.34244791666667  1.39973958333333 9.173828125  1.05859375 8.83658854166667  C 0.717447916666667 8.49934895833333  0.455729166666667 8.09375  0.2734375 7.61979166666667  C 0.0911458333333333 7.14583333333333  0 6.68402777777778  0 6.234375  C 0 5.74826388888889  0.109375 5.32443576388889  0.328125 4.962890625  C 0.546875 4.60134548611111  0.856770833333333 4.42057291666667  1.2578125 4.42057291666667  C 1.65364583333333 4.42057291666667  2.02213541666667 4.58919270833333  2.36328125 4.92643229166667  C 2.70442708333333 5.263671875  2.96614583333333 5.67078993055555  3.1484375 6.14778645833333  Z M 4.9921875 7.82942708333333  C 5.53385416666667 7.47092013888889  6.03645833333333 7.29166666666667  6.5 7.29166666666667  C 7.11458333333333 7.29166666666667  7.77864583333333 7.587890625  8.4921875 8.18033854166667  C 9.20572916666667 8.77278645833333  9.80208333333333 9.49283854166667  10.28125 10.3404947916667  C 10.7604166666667 11.1881510416667  11 11.9613715277778  11 12.66015625  C 11 12.9396701388889  10.9557291666667 13.1720920138889  10.8671875 13.357421875  C 10.7786458333333 13.5427517361111  10.65234375 13.6794704861111  10.48828125 13.767578125  C 10.32421875 13.8556857638889  10.15625 13.9164496527778  9.984375 13.9498697916667  C 9.8125 13.9832899305556  9.61458333333333 14  9.390625 14  C 9.03645833333333 14  8.54817708333333 13.86328125  7.92578125 13.58984375  C 7.30338541666667 13.31640625  6.828125 13.1796875  6.5 13.1796875  C 6.15625 13.1796875  5.65494791666667 13.3148871527778  4.99609375 13.5852864583333  C 4.33723958333333 13.8556857638889  3.81510416666667 13.9908854166667  3.4296875 13.9908854166667  C 2.4765625 13.9908854166667  2 13.5473090277778  2 12.66015625  C 2 12.1375868055556  2.14583333333333 11.5557725694444  2.4375 10.9147135416667  C 2.72916666666667 10.2736545138889  3.09244791666667 9.68880208333333  3.52734375 9.16015625  C 3.96223958333333 8.63151041666667  4.45052083333333 8.18793402777778  4.9921875 7.82942708333333  Z M 9.4453125 4.84440104166667  C 9.12239583333333 5.19379340277778  8.76302083333333 5.36848958333333  8.3671875 5.36848958333333  C 8.04947916666667 5.36848958333333  7.77604166666667 5.25  7.546875 5.01302083333333  C 7.31770833333333 4.77604166666667  7.15364583333333 4.49500868055555  7.0546875 4.169921875  C 6.95572916666667 3.84483506944444  6.90625 3.5  6.90625 3.13541666666667  C 6.90625 2.68576388888889  6.984375 2.22547743055555  7.140625 1.75455729166667  C 7.296875 1.28363715277778  7.53515625 0.873480902777777  7.85546875 0.524088541666667  C 8.17578125 0.174696180555555  8.53645833333333 0  8.9375 0  C 9.25520833333333 0  9.52864583333333 0.118489583333333  9.7578125 0.35546875  C 9.98697916666667 0.592447916666667  10.1510416666667 0.873480902777777  10.25 1.19856770833333  C 10.3489583333333 1.52365451388889  10.3984375 1.86848958333333  10.3984375 2.23307291666667  C 10.3984375 2.67664930555555  10.3203125 3.13541666666667  10.1640625 3.609375  C 10.0078125 4.08333333333333  9.76822916666667 4.49500868055555  9.4453125 4.84440104166667  Z M 10.63671875 4.92643229166667  C 10.9778645833333 4.58919270833333  11.3463541666667 4.42057291666667  11.7421875 4.42057291666667  C 12.1432291666667 4.42057291666667  12.453125 4.60134548611111  12.671875 4.962890625  C 12.890625 5.32443576388889  13 5.74826388888889  13 6.234375  C 13 6.68402777777778  12.9088541666667 7.14583333333333  12.7265625 7.61979166666667  C 12.5442708333333 8.09375  12.2825520833333 8.49934895833333  11.94140625 8.83658854166667  C 11.6002604166667 9.173828125  11.2317708333333 9.34244791666667  10.8359375 9.34244791666667  C 10.4348958333333 9.34244791666667  10.125 9.16319444444444  9.90625 8.8046875  C 9.6875 8.44618055555556  9.578125 8.02387152777778  9.578125 7.53776041666667  C 9.578125 7.08810763888889  9.66927083333333 6.62478298611111  9.8515625 6.14778645833333  C 10.0338541666667 5.67078993055555  10.2955729166667 5.263671875  10.63671875 4.92643229166667  Z " fill-rule="nonzero" fill="#000000" stroke="none" transform="matrix(1 0 0 1 6 30 )" />
  </g>
</svg>